<?xml version="1.0" encoding="utf-8"?>
<!-- Generator: Adobe Illustrator 22.0.0, SVG Export Plug-In . SVG Version: 6.00 Build 0)  -->
<svg version="1.1" id="Layer_1" xmlns="http://www.w3.org/2000/svg" xmlns:xlink="http://www.w3.org/1999/xlink" x="0px" y="0px"
	 viewBox="0 0 1190.6 841.9" style="enable-background:new 0 0 1190.6 841.9;" xml:space="preserve">
<style type="text/css">
	.st0{fill:#1A2F54;}
	.st1{fill:#E89C20;}
	.st2{fill:#FFFFFF;}
</style>
<g>
	<path class="st0" d="M342.6,710v-89.5h17.6l12.6,68l12.6-68h17.9V710h-12.8v-70.7L377.7,710h-9.6l-12.8-70.5V710H342.6z"/>
	<path class="st0" d="M416.1,710v-89.5h35.2v9.6h-22.4v28.8h16v9.6h-16v32h22.4v9.6H416.1z"/>
	<path class="st0" d="M459.2,710v-89.5h16c9.5,0,16.7,1.8,21.5,5.5c4.8,3.7,7.2,9.8,7.2,18.4c0,5.3-1,9.8-2.8,13.4
		c-1.9,3.6-4.7,6.1-8.3,7.4l14.4,44.8h-12.7l-12.9-41.6H472V710H459.2z M472,658.9h3.2c5.3,0,9.3-1.1,12-3.4c2.7-2.2,4-5.9,4-11
		c0-5.1-1.3-8.8-4-11c-2.7-2.2-6.7-3.4-12-3.4H472V658.9z"/>
	<path class="st0" d="M512.9,678v-25.5c0-4,0.2-7.6,0.7-10.8c0.5-3.2,1.3-6.2,2.4-9c1.1-2.8,2.6-5.2,4.5-7c1.8-1.9,4.2-3.3,7-4.4
		c2.9-1.1,6.2-1.6,9.9-1.6c4.2,0,7.8,0.6,10.8,1.8s5.5,3,7.3,5.4c1.8,2.4,3.2,5.2,4.1,8.3c0.9,3.2,1.5,6.9,1.6,11.1
		c0,0.6,0,1.6,0,2.9h-12.8v-2.8c0-1.8-0.1-3.3-0.2-4.5c-0.1-1.2-0.3-2.5-0.5-3.9c-0.3-1.3-0.7-2.4-1.2-3.3c-0.5-0.9-1.2-1.7-1.9-2.4
		c-0.8-0.7-1.8-1.3-3-1.6c-1.2-0.3-2.6-0.5-4.2-0.5c-2.1,0-3.8,0.3-5.3,1c-1.5,0.7-2.6,1.5-3.5,2.6c-0.8,1-1.5,2.5-1.9,4.2
		c-0.5,1.8-0.7,3.5-0.9,5.2c-0.1,1.7-0.2,3.8-0.2,6.2v32c0,2.1,0.1,4.1,0.3,5.8c0.2,1.7,0.5,3.5,1.1,5.2c0.5,1.7,1.2,3.2,2.1,4.3
		c0.8,1.2,2,2.1,3.4,2.8c1.4,0.7,3.1,1.1,5,1.1c1.9,0,3.5-0.4,4.9-1.1c1.4-0.7,2.4-1.7,3.2-2.8c0.8-1.1,1.4-2.6,1.8-4.3
		c0.4-1.8,0.7-3.5,0.9-5.1c0.1-1.7,0.2-3.6,0.2-5.8v-3.2h12.8v3.2c0,4.6-0.4,8.7-1.2,12.2c-0.8,3.5-2.1,6.6-3.9,9.3
		c-1.8,2.7-4.3,4.7-7.4,6.1c-3.1,1.4-6.9,2.1-11.3,2.1c-3.8,0-7.1-0.5-9.9-1.6c-2.9-1.1-5.2-2.5-7-4.4s-3.3-4.2-4.5-7s-2-5.8-2.4-9
		C513.2,685.7,512.9,682,512.9,678z"/>
	<path class="st0" d="M568.3,681.3v-32.5c0-4.7,0.4-8.8,1.3-12.3c0.9-3.5,2.2-6.5,4.1-9.1c1.9-2.6,4.5-4.5,7.7-5.8
		c3.2-1.3,7.1-1.9,11.6-1.9c8.7,0,15,2.5,18.9,7.5c3.9,5,5.8,12.2,5.8,21.7v32.5c0,4.6-0.4,8.7-1.3,12.3c-0.9,3.5-2.3,6.6-4.2,9.3
		c-1.9,2.6-4.5,4.7-7.7,6c-3.2,1.4-7.1,2.1-11.5,2.1c-4.5,0-8.4-0.7-11.6-2c-3.2-1.4-5.8-3.4-7.7-6c-1.9-2.6-3.3-5.7-4.1-9.3
		C568.7,690.1,568.3,686,568.3,681.3z M581,684.5c0,5.3,0.9,9.2,2.6,11.9c1.7,2.7,4.8,4,9.3,4s7.6-1.3,9.3-4
		c1.7-2.7,2.6-6.7,2.6-11.9v-38.9c0-5.2-0.8-9.1-2.5-11.6c-1.7-2.6-4.8-3.8-9.3-3.8s-7.6,1.3-9.3,3.8c-1.7,2.6-2.5,6.4-2.5,11.6
		V684.5z"/>
	<path class="st0" d="M627.2,678v-25.5c0-4,0.2-7.6,0.7-10.8c0.5-3.2,1.3-6.2,2.4-9c1.1-2.8,2.6-5.2,4.5-7c1.8-1.9,4.2-3.3,7-4.4
		c2.9-1.1,6.2-1.6,9.9-1.6c4.2,0,7.8,0.6,10.8,1.8s5.5,3,7.3,5.4c1.8,2.4,3.2,5.2,4.1,8.3c0.9,3.2,1.5,6.9,1.6,11.1
		c0,0.6,0,1.6,0,2.9h-12.8v-2.8c0-1.8-0.1-3.3-0.2-4.5c-0.1-1.2-0.3-2.5-0.5-3.9c-0.3-1.3-0.7-2.4-1.2-3.3c-0.5-0.9-1.2-1.7-1.9-2.4
		c-0.8-0.7-1.8-1.3-3-1.6c-1.2-0.3-2.6-0.5-4.2-0.5c-2.1,0-3.8,0.3-5.3,1c-1.5,0.7-2.6,1.5-3.5,2.6c-0.8,1-1.5,2.5-1.9,4.2
		c-0.5,1.8-0.7,3.5-0.9,5.2c-0.1,1.7-0.2,3.8-0.2,6.2v32c0,2.1,0.1,4.1,0.3,5.8c0.2,1.7,0.5,3.5,1.1,5.2c0.5,1.7,1.2,3.2,2.1,4.3
		c0.8,1.2,2,2.1,3.4,2.8c1.4,0.7,3.1,1.1,5,1.1c1.9,0,3.5-0.4,4.9-1.1c1.4-0.7,2.4-1.7,3.2-2.8c0.8-1.1,1.4-2.6,1.8-4.3
		c0.4-1.8,0.7-3.5,0.9-5.1c0.1-1.7,0.2-3.6,0.2-5.8v-3.2h12.8v3.2c0,4.6-0.4,8.7-1.2,12.2c-0.8,3.5-2.1,6.6-3.9,9.3
		c-1.8,2.7-4.3,4.7-7.4,6.1c-3.1,1.4-6.9,2.1-11.3,2.1c-3.8,0-7.1-0.5-9.9-1.6c-2.9-1.1-5.2-2.5-7-4.4s-3.3-4.2-4.5-7s-2-5.8-2.4-9
		C627.5,685.7,627.2,682,627.2,678z"/>
	<path class="st0" d="M683.4,678.1v-57.6h12.8v57.6c0,2.8,0.1,5.1,0.2,7c0.1,1.9,0.4,3.9,0.9,6c0.5,2.1,1.2,3.8,2.1,5.1
		c0.9,1.3,2.1,2.3,3.7,3.2c1.6,0.8,3.6,1.2,5.9,1.2c2.3,0,4.3-0.4,5.9-1.2c1.6-0.8,2.9-1.9,3.7-3.2c0.9-1.3,1.6-3,2.1-5.1
		c0.5-2.1,0.8-4.1,0.9-6c0.1-1.9,0.2-4.2,0.2-7v-57.6h12.8v57.6c0,4.1-0.2,7.8-0.7,11c-0.5,3.2-1.3,6.3-2.5,9.1
		c-1.2,2.8-2.8,5.1-4.7,7c-1.9,1.8-4.4,3.3-7.3,4.3c-3,1-6.4,1.5-10.3,1.5c-3.9,0-7.3-0.5-10.3-1.5c-3-1-5.4-2.5-7.3-4.3
		c-1.9-1.9-3.5-4.2-4.7-7c-1.2-2.8-2-5.8-2.5-9.1C683.7,685.8,683.4,682.2,683.4,678.1z"/>
	<path class="st0" d="M746.7,710v-89.5h19.2c4.1,0,7.8,0.4,11.1,1.3c3.3,0.9,6.1,2.2,8.6,3.9c2.4,1.8,4.3,4.1,5.6,7
		c1.3,2.9,2,6.3,2,10.1c0,5.6-1.2,9.9-3.5,12.8c-2.4,2.9-6,5.1-10.9,6.4c5.3,1.8,9.3,4.4,12,7.8c2.7,3.4,4,8.3,4,14.6
		c0,7.9-2.3,14.1-6.9,18.7c-4.6,4.6-10.8,6.9-18.7,6.9H746.7z M759.5,658.9h6.4c10.7,0,16-5.3,16-16c0-1.8-0.2-3.3-0.6-4.7
		c-0.4-1.3-0.9-2.5-1.5-3.4c-0.6-0.9-1.5-1.7-2.7-2.3c-1.2-0.6-2.3-1.1-3.3-1.4s-2.4-0.6-4.3-0.7c-1.8-0.1-3.4-0.2-4.6-0.3
		c-1.2,0-3,0-5.2,0V658.9z M759.5,700.4h6.4c5.5,0,9.6-1.3,12.1-3.8c2.6-2.5,3.8-6.6,3.8-12.2c0-5.6-1.3-9.6-3.8-12.2
		c-2.6-2.5-6.6-3.8-12.1-3.8h-6.4V700.4z"/>
	<path class="st0" d="M798.4,710l19.2-89.5h12.8l19.2,89.5h-12.8l-4.8-22.4h-16l-4.8,22.4H798.4z M817.6,678.1h12.8l-6.4-38.4
		L817.6,678.1z"/>
</g>
<path class="st1" d="M664.8,203.5v2.9L639,207v-2.6c0-23.7-16.2-42.5-37.2-45.5c-1.4-2.5-2.9-4.9-4.5-7.3c-4.5-6.4-9.6-12-15.5-16.8
	c3.7-1,7.5-1.6,11.4-1.9c1.7-0.1,3.4-0.2,5.1-0.2C634.8,132.6,664.8,163.3,664.8,203.5z"/>
<g>
	<path class="st1" d="M554.5,186.1c-3,6.5-4.7,13.7-4.7,21.3v1.6l-22.5,0.5v-1.4c0-13,3.3-25.5,9-36.4c1,0.2,2,0.6,3,0.9
		c4.9,1.8,9.2,5.1,12.5,9.3C552.8,183.3,553.7,184.7,554.5,186.1z"/>
</g>
<path class="st1" d="M624.9,221.5l-26.2,0.6v-20.1c0-10.6-2.1-20.5-5.8-29.4c-1.9-4.6-4.3-9-7.1-13c-5.2-7.6-11.9-13.9-19.5-18.7
	c-6.2-3.9-12.9-6.7-20.2-8.3c-4.5-1-9.2-1.5-13.9-1.5c-1.7,0-3.4,0.1-5.1,0.2c-37,2.9-65.9,36.7-65.9,75.4v18.5l-61.8,1.4v315.4
	l276,49.8V226v-5.7L624.9,221.5z M572.9,222.6l-8.9,0.2l-50.8,1.2l-29.5,0.7v-18.8c0-25.5,19.2-47.5,43.4-49c0.6,0,1.1-0.1,1.7-0.1
	c0.3,0,0.7,0,1,0c5.1,0,10,0.9,14.6,2.7c7.3,2.8,13.8,7.6,18.6,13.9c3.1,4,5.6,8.5,7.3,13.5c1.7,4.9,2.6,10.3,2.6,15.9V222.6z"/>
<g>
	<path class="st2" d="M645.9,251.9v145.3c-11.2-13.3-25.1-24.2-40.5-32v-47.3l-76.6,37.3l-1.8,0.9l-0.5-0.3l-71.2-42.6v174.1l0,0
		c5.5,15,13.9,29,24.7,41.1l-57.1-9.5V253.2l104.1,59.7L645.9,251.9z"/>
</g>
<path class="st2" d="M606.4,486.2l44.2,5.6c-9.8,39.9-48.1,64.3-91.8,57c-22.6-3.8-42.6-15.4-57.5-31.3
	c-7.4-7.9-13.5-16.8-18.1-26.4c-5.9-12.4-9.2-25.9-9.2-39.8c0-45.9,37-80.9,84.8-77.8c16.8,1.1,32.8,6.7,46.8,15.7
	c16.8,10.8,30.5,26.3,38.8,44.5c2.7,5.9,4.8,12,6.3,18.3l-44.2-4.7c-8.2-17.9-26.7-31.5-47.7-33.4c-27.5-2.4-49.2,16.2-49.2,41.5
	c0,25.3,21.7,49,49.2,53C579.6,511.4,598.1,502.2,606.4,486.2z"/>
<polygon class="st1" points="754.3,221.8 688.1,220.3 688.1,591.8 774.5,576.2 "/>
</svg>
